# xmcd
# Copyright (C) 1995-1998 Ti Kan
#
# Track frame offsets:
#       150
#       16636
#       33061
#
# Disc length: 716 seconds
#
# Revision: 0
# Processed by: cddbd v1.5.2PL0 Copyright (c) Steve Scherf et al.
# Submitted via: CD-Transfer v1.0
#
DISCID=0f02ca03
DTITLE=Mc Kenna - Goodbye
DYEAR=08
DGENRE=
TTITLE0=Goodbye (Christmas)
TTITLE1=Goodbye (All Season)
TTITLE2=Goodbye (Unplugged)
EXTD=
EXTT0=
EXTT1=
EXTT2=
PLAYORDER=
